<?xml version="1.0" encoding="UTF-8"?>
<svg width="687" height="142" viewBox="0 0 687 142" fill="none" xmlns="http://www.w3.org/2000/svg">
  <path d="M0 71C0 31.7878 31.7878 0 71 0H616C655.212 0 687 31.7878 687 71C687 110.212 655.212 142 616 142H71C31.7878 142 0 110.212 0 71Z" fill="#005C9E"/>
  <path d="M144.5 35H167.5V107H144.5V35Z" fill="white"/>
  <path d="M189.5 35H212.5V107H189.5V35Z" fill="white"/>
  <path d="M234.5 35H257.5V107H234.5V35Z" fill="white"/>
  <path d="M279.5 35H302.5V107H279.5V35Z" fill="white"/>
  <path d="M324.5 35H347.5V107H324.5V35Z" fill="white"/>
  <path d="M369.5 35H392.5V107H369.5V35Z" fill="white"/>
  <path d="M414.5 35H437.5V107H414.5V35Z" fill="white"/>
  <path d="M459.5 35H482.5V107H459.5V35Z" fill="white"/>
  <path d="M504.5 35H527.5V107H504.5V35Z" fill="white"/>
  <path d="M549.5 35H572.5V107H549.5V35Z" fill="white"/>
</svg> 